<svg width="134" height="25" viewBox="0 0 134 25" fill="none" xmlns="http://www.w3.org/2000/svg">
<path d="M0 12.3465V1.18242C0 1.07807 0.07737 0.989904 0.180831 0.976347C4.29381 0.437422 6.9001 5.25963 4.19595 8.4052L0.612536 12.5736C0.40186 12.8186 0 12.6696 0 12.3465Z" fill="#21409A"/>
<path d="M3.63467 11.5532L12.9956 1.818C13.4394 1.35651 14.052 1.0957 14.6922 1.0957H18.9711C19.592 1.0957 19.9106 1.83948 19.4822 2.28895L9.58181 12.6767L19.6558 23.1378C20.0565 23.5539 19.8153 24.2487 19.2431 24.3272L15.7552 24.8052C15.0181 24.9062 14.2766 24.6527 13.7556 24.1217L5.66055 15.8709V22.739C5.66055 23.2178 5.58355 23.7167 5.25998 24.0697C4.05156 25.388 1.54026 25.0347 0.560492 23.7326C0.337644 23.4364 0.280483 23.0565 0.267492 22.6861L0.192608 20.5509C0.0754209 17.2095 1.31728 13.9633 3.63467 11.5532Z" fill="#FF8300"/>
<path d="M25.6067 23.2181C24.6347 23.2181 23.683 23.0358 22.7515 22.6713C21.8402 22.2866 21.0099 21.7499 20.2607 21.0614C19.5317 20.3729 18.9444 19.5629 18.4989 18.6314C18.0737 17.6999 17.861 16.6772 17.861 15.5635C17.861 14.4902 18.0635 13.4878 18.4685 12.5563C18.8735 11.6248 19.4304 10.8047 20.1392 10.0959C20.8479 9.38716 21.6579 8.8404 22.5692 8.45565C23.5007 8.05064 24.493 7.84814 25.546 7.84814C26.9635 7.84814 28.2494 8.19239 29.4036 8.8809C30.5579 9.54916 31.4793 10.4604 32.1678 11.6147C32.8563 12.7689 33.2006 14.0751 33.2006 15.5331C33.2006 16.6874 32.9879 17.7404 32.5627 18.6921C32.1374 19.6236 31.5603 20.4337 30.8313 21.1222C30.1023 21.7904 29.2821 22.3068 28.3709 22.6713C27.4799 23.0358 26.5585 23.2181 25.6067 23.2181ZM25.546 19.6338C26.2142 19.6338 26.8521 19.4718 27.4596 19.1478C28.0874 18.8035 28.5936 18.3175 28.9784 17.6898C29.3834 17.062 29.5859 16.3229 29.5859 15.4724C29.5859 14.6826 29.4036 13.984 29.0391 13.3765C28.6949 12.7689 28.219 12.2931 27.6115 11.9488C27.004 11.6046 26.3054 11.4324 25.5156 11.4324C24.7663 11.4324 24.088 11.6147 23.4805 11.9792C22.873 12.3234 22.3869 12.8094 22.0224 13.4372C21.6782 14.0447 21.5061 14.7332 21.5061 15.5027C21.5061 16.3532 21.6984 17.0924 22.0832 17.7201C22.4679 18.3276 22.9641 18.8035 23.5716 19.1478C24.1993 19.4718 24.8575 19.6338 25.546 19.6338Z" fill="#21409A"/>
<path d="M37.38 23.0054C36.8333 23.0054 36.4283 22.9143 36.165 22.7321C35.922 22.5701 35.7701 22.3574 35.7094 22.0942C35.6486 21.8107 35.6183 21.4968 35.6183 21.1525V9.79216C35.6183 9.46816 35.6486 9.17453 35.7094 8.91128C35.7701 8.64802 35.9321 8.44552 36.1954 8.30377C36.4586 8.14177 36.8636 8.06077 37.4104 8.06077C37.8964 8.06077 38.2609 8.12152 38.5039 8.24302C38.7469 8.36452 38.9089 8.5164 38.9899 8.69865C39.0709 8.8809 39.1114 9.06315 39.1114 9.24541C39.1317 9.42766 39.1519 9.56941 39.1722 9.67066L39.0507 10.6427C39.1722 10.3187 39.3747 10.0048 39.6582 9.70104C39.9417 9.39728 40.2859 9.1239 40.6909 8.8809C41.0959 8.61765 41.5313 8.41515 41.9971 8.2734C42.4831 8.11139 42.9792 8.03039 43.4855 8.03039C44.4372 8.03039 45.2877 8.20252 46.037 8.54677C46.7862 8.89103 47.4241 9.37703 47.9506 10.0048C48.4974 10.6325 48.9125 11.3818 49.196 12.2526C49.4795 13.1031 49.6213 14.065 49.6213 15.1382V21.1829C49.6213 21.5272 49.5808 21.841 49.4998 22.1245C49.439 22.3878 49.2872 22.6004 49.0441 22.7624C48.8011 22.9244 48.386 23.0054 47.7988 23.0054C47.2318 23.0054 46.8166 22.9143 46.5534 22.7321C46.2901 22.5701 46.1281 22.3574 46.0674 22.0942C46.0066 21.8107 45.9762 21.4968 45.9762 21.1525V15.1078C45.9762 14.3788 45.8446 13.7511 45.5814 13.2246C45.3384 12.6981 44.9739 12.2931 44.4879 12.0096C44.0221 11.7261 43.4247 11.5843 42.6957 11.5843C41.9869 11.5843 41.3693 11.7362 40.8428 12.0399C40.3163 12.3234 39.9113 12.7284 39.6278 13.255C39.3443 13.7815 39.2025 14.3991 39.2025 15.1078V21.1829C39.2025 21.5272 39.1722 21.841 39.1114 22.1245C39.0507 22.3878 38.8887 22.6004 38.6254 22.7624C38.3824 22.9244 37.9673 23.0054 37.38 23.0054Z" fill="#21409A"/>
<path d="M54.3771 23.0054C53.8304 23.0054 53.4254 22.9143 53.1621 22.7321C52.9191 22.5701 52.7673 22.3574 52.7065 22.0942C52.6458 21.8107 52.6154 21.4968 52.6154 21.1525V9.79216C52.6154 9.46816 52.6458 9.17453 52.7065 8.91128C52.7673 8.64802 52.9293 8.44552 53.1925 8.30377C53.4558 8.14177 53.8608 8.06077 54.4075 8.06077C54.8935 8.06077 55.258 8.12152 55.501 8.24302C55.744 8.36452 55.906 8.5164 55.987 8.69865C56.068 8.8809 56.1085 9.06315 56.1085 9.24541C56.1288 9.42766 56.149 9.56941 56.1693 9.67066L56.0478 10.6427C56.1693 10.3187 56.3718 10.0048 56.6553 9.70104C56.9388 9.39728 57.2831 9.1239 57.6881 8.8809C58.0931 8.61765 58.5284 8.41515 58.9942 8.2734C59.4802 8.11139 59.9763 8.03039 60.4826 8.03039C61.4344 8.03039 62.2849 8.20252 63.0341 8.54677C63.7834 8.89103 64.4213 9.37703 64.9478 10.0048C65.4945 10.6325 65.9097 11.3818 66.1932 12.2526C66.4767 13.1031 66.6184 14.065 66.6184 15.1382V21.1829C66.6184 21.5272 66.5779 21.841 66.4969 22.1245C66.4362 22.3878 66.2843 22.6004 66.0413 22.7624C65.7983 22.9244 65.3831 23.0054 64.7959 23.0054C64.2289 23.0054 63.8138 22.9143 63.5505 22.7321C63.2872 22.5701 63.1252 22.3574 63.0645 22.0942C63.0037 21.8107 62.9734 21.4968 62.9734 21.1525V15.1078C62.9734 14.3788 62.8417 13.7511 62.5785 13.2246C62.3355 12.6981 61.971 12.2931 61.485 12.0096C61.0192 11.7261 60.4218 11.5843 59.6928 11.5843C58.9841 11.5843 58.3664 11.7362 57.8399 12.0399C57.3134 12.3234 56.9084 12.7284 56.6249 13.255C56.3414 13.7815 56.1997 14.3991 56.1997 15.1078V21.1829C56.1997 21.5272 56.1693 21.841 56.1085 22.1245C56.0478 22.3878 55.8858 22.6004 55.6225 22.7624C55.3795 22.9244 54.9644 23.0054 54.3771 23.0054Z" fill="#21409A"/>
<path d="M82.036 22.9751C81.4488 22.9751 81.0134 22.8637 80.7299 22.6409C80.4464 22.4182 80.3046 22.1144 80.3046 21.7297L80.5173 20.7273C80.3553 20.9905 80.0819 21.3044 79.6971 21.6689C79.3124 22.0132 78.8061 22.327 78.1784 22.6106C77.5506 22.8738 76.7912 23.0054 75.9002 23.0054C74.9484 23.0054 74.0473 22.8131 73.1968 22.4283C72.3665 22.0233 71.6274 21.4765 70.9794 20.788C70.3517 20.0793 69.8454 19.2794 69.4606 18.3884C69.0961 17.4771 68.9139 16.5051 68.9139 15.4724C68.9139 14.4801 69.0961 13.5486 69.4606 12.6778C69.8454 11.7868 70.3618 10.9971 71.0098 10.3085C71.6578 9.62004 72.3969 9.08341 73.2272 8.69865C74.0777 8.29365 74.9687 8.09114 75.9002 8.09114C76.7305 8.09114 77.4291 8.20252 77.9961 8.42527C78.5834 8.64803 79.0795 8.93153 79.4845 9.27578C79.8895 9.59978 80.2236 9.94404 80.4869 10.3085L80.3046 9.42766C80.3046 8.98215 80.4464 8.64803 80.7299 8.42527C81.0134 8.18227 81.4589 8.06077 82.0664 8.06077C82.6334 8.06077 83.0384 8.15189 83.2814 8.33415C83.5244 8.49615 83.6763 8.72902 83.737 9.03278C83.7978 9.31628 83.8282 9.64029 83.8282 10.0048V21.1222C83.8282 21.4664 83.7978 21.7803 83.737 22.0638C83.6763 22.3473 83.5143 22.5701 83.251 22.7321C83.008 22.8941 82.603 22.9751 82.036 22.9751ZM76.447 19.4515C77.1355 19.4515 77.7531 19.2794 78.2999 18.9351C78.8466 18.5909 79.282 18.1251 79.606 17.5379C79.9503 16.9304 80.1224 16.2621 80.1224 15.5331C80.1224 14.7433 79.9503 14.0548 79.606 13.4676C79.2617 12.8803 78.8061 12.4247 78.2391 12.1007C77.6924 11.7564 77.0747 11.5843 76.3862 11.5843C75.637 11.5843 74.9687 11.7666 74.3814 12.1311C73.7942 12.4753 73.3284 12.9512 72.9842 13.5587C72.6602 14.146 72.4982 14.8142 72.4982 15.5635C72.4982 16.2925 72.6703 16.9506 73.0146 17.5379C73.3588 18.1251 73.8246 18.5909 74.4118 18.9351C75.0193 19.2794 75.6977 19.4515 76.447 19.4515Z" fill="#21409A"/>
<path d="M93.3155 23.0054C92.384 23.0054 91.5031 22.8131 90.6728 22.4283C89.8426 22.0435 89.1136 21.517 88.4858 20.8488C87.858 20.1603 87.3619 19.3604 86.9974 18.4491C86.6329 17.5176 86.4507 16.5254 86.4507 15.4724C86.4507 14.4598 86.6329 13.5081 86.9974 12.6171C87.3619 11.7058 87.858 10.916 88.4858 10.2478C89.1338 9.55929 89.8729 9.02265 90.7032 8.6379C91.5335 8.25315 92.4042 8.06077 93.3155 8.06077C94.2875 8.06077 95.1582 8.25315 95.9278 8.6379C96.6973 9.02265 97.3453 9.55929 97.8718 10.2478C98.4185 10.916 98.8337 11.7058 99.1172 12.6171C99.4007 13.5081 99.5526 14.47 99.5728 15.5027C99.5728 16.5355 99.431 17.5075 99.1475 18.4188C98.8843 19.3098 98.4793 20.0995 97.9325 20.788C97.406 21.4765 96.7479 22.0233 95.9581 22.4283C95.1886 22.8131 94.3077 23.0054 93.3155 23.0054ZM93.8015 19.4515C94.5102 19.4515 95.138 19.2895 95.6848 18.9655C96.2518 18.6213 96.6973 18.1555 97.0213 17.5682C97.3655 16.981 97.5377 16.3127 97.5377 15.5635C97.5377 14.794 97.3655 14.1156 97.0213 13.5283C96.6973 12.9411 96.2518 12.4753 95.6848 12.1311C95.138 11.7868 94.5102 11.6147 93.8015 11.6147C93.0927 11.6147 92.4548 11.7868 91.8878 12.1311C91.3208 12.4551 90.8652 12.9208 90.521 13.5283C90.1969 14.1156 90.0349 14.794 90.0349 15.5635C90.0349 16.3127 90.1969 16.981 90.521 17.5682C90.8652 18.1555 91.3208 18.6213 91.8878 18.9655C92.4751 19.2895 93.113 19.4515 93.8015 19.4515ZM99.4209 23.0054C98.8539 23.0054 98.4388 22.9143 98.1755 22.7321C97.9123 22.5296 97.7402 22.2157 97.6591 21.7904V3.07921C97.6591 2.73496 97.6794 2.43121 97.7199 2.16795C97.7807 1.88445 97.9325 1.6617 98.1755 1.49969C98.4388 1.31744 98.8438 1.22632 99.3905 1.22632C99.9778 1.22632 100.393 1.30732 100.636 1.46932C100.879 1.63132 101.031 1.85407 101.092 2.13758C101.173 2.40083 101.213 2.70458 101.213 3.04884V21.1525C101.213 21.4968 101.183 21.8107 101.122 22.0942C101.061 22.3777 100.899 22.6004 100.636 22.7624C100.393 22.9244 99.9879 23.0054 99.4209 23.0054Z" fill="#21409A"/>
<path d="M111.577 23.2181C110.261 23.2181 109.106 23.0054 108.114 22.5802C107.142 22.1549 106.322 21.5778 105.654 20.8488C105.006 20.0995 104.51 19.2693 104.165 18.358C103.841 17.4265 103.679 16.4646 103.679 15.4724C103.679 14.0143 104.014 12.7183 104.682 11.5843C105.35 10.4503 106.271 9.55929 107.446 8.91128C108.641 8.26327 110.008 7.93927 111.547 7.93927C112.64 7.93927 113.602 8.11139 114.432 8.45565C115.263 8.7999 115.951 9.25553 116.498 9.82254C117.065 10.3693 117.49 10.9768 117.774 11.6451C118.077 12.3133 118.229 12.9613 118.229 13.5891C118.229 14.6623 117.966 15.442 117.439 15.928C116.933 16.414 116.295 16.657 115.526 16.657H107.507C107.527 17.3455 107.74 17.9429 108.145 18.4491C108.57 18.9554 109.096 19.3503 109.724 19.6338C110.372 19.897 111.03 20.0287 111.698 20.0287C112.205 20.0287 112.65 19.9983 113.035 19.9375C113.44 19.8768 113.784 19.8059 114.068 19.7249C114.351 19.6236 114.594 19.5224 114.797 19.4211C115.02 19.3199 115.222 19.2288 115.404 19.1478C115.587 19.0668 115.759 19.0161 115.921 18.9959C116.143 18.9756 116.366 19.0263 116.589 19.1478C116.812 19.2693 116.994 19.4819 117.136 19.7856C117.257 19.9881 117.338 20.1805 117.379 20.3628C117.439 20.5248 117.47 20.6868 117.47 20.8488C117.47 21.2538 117.227 21.6385 116.741 22.003C116.255 22.3473 115.566 22.6308 114.675 22.8536C113.805 23.0966 112.772 23.2181 111.577 23.2181ZM107.507 14.5003H113.734C114.078 14.5003 114.341 14.4497 114.523 14.3485C114.706 14.227 114.797 13.984 114.797 13.6195C114.797 13.1537 114.655 12.7386 114.372 12.3741C114.088 11.9893 113.703 11.6957 113.217 11.4932C112.731 11.2704 112.164 11.1591 111.516 11.1591C110.767 11.1591 110.089 11.3109 109.481 11.6147C108.874 11.8982 108.388 12.2931 108.023 12.7993C107.679 13.3056 107.507 13.8726 107.507 14.5003Z" fill="#21409A"/>
<path d="M132.933 8.48602C133.318 8.83028 133.561 9.13403 133.662 9.39728C133.783 9.66054 133.783 9.93391 133.662 10.2174C133.561 10.4807 133.338 10.8047 132.993 11.1894L123.365 22.3372C123.02 22.7017 122.717 22.9447 122.453 23.0662C122.19 23.2079 121.927 23.2282 121.663 23.1269C121.421 23.0257 121.127 22.8333 120.783 22.5498C120.438 22.2055 120.205 21.9119 120.084 21.6689C119.962 21.4057 119.962 21.1323 120.084 20.8488C120.226 20.5653 120.459 20.2413 120.783 19.8768L130.412 8.72903C130.918 8.18227 131.333 7.88864 131.657 7.84814C132.001 7.80764 132.426 8.02027 132.933 8.48602ZM120.813 8.48602C121.157 8.18227 121.451 7.98989 121.694 7.90889C121.957 7.82789 122.21 7.85827 122.453 8.00002C122.717 8.12152 123.01 8.36452 123.334 8.72903L132.963 19.8768C133.307 20.2413 133.54 20.5653 133.662 20.8488C133.783 21.1323 133.793 21.4057 133.692 21.6689C133.591 21.9119 133.348 22.2055 132.963 22.5498C132.619 22.8536 132.315 23.0459 132.052 23.1269C131.809 23.2282 131.556 23.2079 131.292 23.0662C131.049 22.9447 130.746 22.7017 130.381 22.3372L120.752 11.1894C120.428 10.8249 120.205 10.5009 120.084 10.2174C119.962 9.93391 119.962 9.66054 120.084 9.39728C120.205 9.11378 120.448 8.81003 120.813 8.48602Z" fill="#21409A"/>
</svg>
